<svg width="148" height="78" viewBox="0 0 148 78" fill="none" xmlns="http://www.w3.org/2000/svg">
<g clip-path="url(#clip0_1340_2004)">
<path d="M128.996 48.5994C128.996 50.7019 128.532 52.4518 127.621 53.8016C126.719 55.1545 125.585 56.1708 124.248 56.8251C122.924 57.4793 121.602 57.8128 120.326 57.8128C118.204 57.8128 116.432 57.0823 115.066 55.6436C113.707 54.1986 113.021 52.2263 113.021 49.7809V27.6797H107.031V50.1461C107.031 53.1473 107.53 55.6754 108.518 57.6635C109.508 59.6485 110.896 61.1602 112.64 62.1543C114.374 63.1293 116.381 63.6247 118.604 63.6247C121.291 63.6247 123.552 62.9864 125.325 61.7287C126.925 60.579 128.158 59.1848 128.996 57.5809V63.1706H134.986V27.6797H128.996V48.6026V48.5994Z" fill="#011829"/>
<path d="M98.0999 40.7815C96.7216 39.8033 95.2543 39.0188 93.7394 38.4504C92.2626 37.8946 90.9033 37.4499 89.6932 37.1292L84.9484 35.8524C84.0972 35.6301 83.1508 35.3348 82.1409 34.9759C81.1373 34.6075 80.1623 34.1343 79.2508 33.5753C78.3552 33.01 77.6088 32.3019 77.0308 31.4667C76.4782 30.6314 76.1987 29.6151 76.1987 28.4432C76.1987 27.0362 76.6052 25.7627 77.4087 24.6606C78.2313 23.5459 79.3969 22.6566 80.8642 22.0183C82.36 21.3736 84.1354 21.0464 86.1394 21.0464C88.877 21.0464 91.2145 21.6689 93.0915 22.9012C94.9367 24.1112 96.0038 25.8357 96.2642 28.0271L96.296 28.3066H102.352L102.34 27.9795C102.264 25.5785 101.508 23.403 100.101 21.5165C98.7129 19.6363 96.8073 18.1373 94.4412 17.0607C92.0815 15.9713 89.3471 15.4219 86.3204 15.4219C83.2937 15.4219 80.5688 15.9808 78.1329 17.0829C75.7033 18.1754 73.7374 19.7348 72.2892 21.7229C70.8473 23.7047 70.1168 26.0581 70.1168 28.7163C70.1168 31.9272 71.222 34.563 73.3976 36.5512C75.5413 38.5107 78.4854 40.0383 82.1472 41.0927L87.8671 42.7283C89.4773 43.1761 90.9985 43.7065 92.3864 44.3036C93.7425 44.888 94.8509 45.6534 95.6799 46.5839C96.4834 47.4859 96.8931 48.6832 96.8931 50.1409C96.8931 51.7543 96.4135 53.1835 95.4639 54.3903C94.5048 55.5972 93.1804 56.5563 91.5321 57.2423C89.8711 57.9188 87.9624 58.2618 85.8662 58.2618C84.0655 58.2618 82.3568 57.9918 80.7975 57.4614C79.2667 56.9215 77.9804 56.0958 76.98 55.0065C76.0018 53.9139 75.4333 52.5102 75.2904 50.8333L75.265 50.5443H68.8242L68.8496 50.8841C69.0338 53.4725 69.8405 55.7814 71.2475 57.7409C72.6671 59.7005 74.633 61.2472 77.0943 62.3397C79.5589 63.4258 82.5125 63.9784 85.8694 63.9784C89.4709 63.9784 92.5801 63.3655 95.105 62.1555C97.6585 60.9391 99.6275 59.2749 100.952 57.2074C102.295 55.1367 102.978 52.7897 102.978 50.2267C102.978 48.0004 102.511 46.0916 101.593 44.5513C100.682 43.0205 99.5068 41.7533 98.0999 40.7783V40.7815Z" fill="#011829"/>
<path d="M147.5 18.5531C147.5 17.467 147.084 16.5269 146.267 15.7583C145.467 14.9929 144.495 14.6055 143.371 14.6055C142.247 14.6055 141.268 14.9929 140.452 15.7615C139.649 16.5301 139.242 17.4702 139.242 18.5563C139.242 19.6425 139.649 20.5794 140.455 21.3511C141.268 22.1165 142.25 22.504 143.374 22.504C144.498 22.504 145.378 22.1515 146.153 21.4591L146.188 21.4274C146.217 21.402 146.245 21.3765 146.274 21.348L146.388 21.2368C147.131 20.4873 147.506 19.5853 147.506 18.5531H147.5Z" fill="#011829"/>
<path d="M146.318 27.6758H140.328V63.1669H146.318V27.6758Z" fill="#011829"/>
<path fill-rule="evenodd" clip-rule="evenodd" d="M48.255 32.8991C51.3992 36.8468 53.2793 41.8393 53.2793 47.2701C53.2793 52.701 51.342 57.846 48.1153 61.8159L47.8358 62.1589L47.7627 61.7238C47.6992 61.3554 47.6262 60.9806 47.5404 60.6059C45.9239 53.5045 40.6582 47.4162 31.9911 42.484C26.1379 39.162 22.7873 35.1667 21.9075 30.6219C21.339 27.6842 21.7614 24.7337 22.5777 22.2057C23.3939 19.6809 24.6071 17.5625 25.6393 16.289L29.0121 12.1666C29.6028 11.4425 30.7112 11.4425 31.3019 12.1666L48.2582 32.8991H48.255ZM53.5874 28.7799L30.9875 1.14931C30.5556 0.622105 29.7489 0.622105 29.317 1.14931L6.72026 28.7799L6.64721 28.872C2.48993 34.0329 0 40.5912 0 47.7307C0 64.3566 13.5009 77.8353 30.1522 77.8353C46.8036 77.8353 60.3045 64.3566 60.3045 47.7307C60.3045 40.5912 57.8146 34.0329 53.6573 28.8752L53.5842 28.7831L53.5874 28.7799ZM12.1289 32.8102L14.1487 30.3361L14.2091 30.7934C14.2567 31.1555 14.3171 31.5175 14.3869 31.8828C15.6954 38.746 20.3672 44.4658 28.1768 48.8962C34.9669 52.7613 38.921 57.2044 40.058 62.0763C40.5343 64.1089 40.6169 66.1097 40.4105 67.8597L40.3978 67.9677L40.2993 68.0153C37.2346 69.5112 33.7887 70.3528 30.1491 70.3528C17.3787 70.3528 7.02515 60.0183 7.02515 47.267C7.02515 41.7917 8.93388 36.7642 12.1225 32.8038L12.1289 32.8102Z" fill="#011829"/>
</g>
<defs>
<clipPath id="clip0_1340_2004">
<rect width="147.681" height="77.175" fill="white" transform="translate(0 0.753906)"/>
</clipPath>
</defs>
</svg>
